<svg width="149" height="70" viewBox="0 0 149 70" fill="none" xmlns="http://www.w3.org/2000/svg">
<g id="lavalogo2 1" clip-path="url(#clip0_306_263)">
<g id="&#208;&#161;&#208;&#187;&#208;&#190;&#208;&#185; 1">
<g id="Group">
<path id="Vector" d="M99.7557 26.8007C98.1664 26.2903 96.5733 25.776 94.8835 25.2347C94.9376 26.1859 95.4674 26.9825 95.7651 27.8216C96.4457 29.7356 95.8154 31.3365 93.9323 32.2607C92.0259 33.2003 89.8683 33.0069 87.9967 31.6613C86.0904 30.2963 84.2382 28.8849 82.3628 27.4929C81.0945 26.4063 81.4 24.1211 82.9119 23.3786C83.7317 23.2472 84.3155 23.6261 84.8182 24.0128C86.7091 25.4512 88.6464 26.851 90.7344 28.2779C90.108 26.6538 89.3888 25.1226 88.832 23.5488C88.6812 23.1157 88.4646 22.6981 88.4105 22.2457C88.2055 20.5056 89.8567 19.4229 91.9834 20.0107C93.9787 20.5597 95.8695 21.3215 97.8261 21.9479C98.0388 22.0175 98.2205 22.1645 98.4989 22.1219C95.9121 19.9913 93.6809 17.648 91.442 15.3125C91.0631 14.9181 90.7112 14.5159 90.719 13.9939C90.6455 12.6521 90.5411 11.3142 90.6842 9.97633C90.7383 9.45431 90.63 8.68482 91.8597 8.81243C94.0251 11.5888 96.4225 14.2375 99.1408 16.7123C99.4502 16.9946 99.7092 17.3078 99.9915 17.6055C99.4231 18.8506 99.4115 20.088 99.9335 21.3524C100.262 22.149 100.343 22.9572 99.8253 23.7614C99.4424 24.3608 99.5352 25.0027 99.7518 25.633C99.8833 26.0197 100.185 26.4102 99.7518 26.8007H99.7557Z" fill="#27955C"/>
<path id="Vector_2" d="M83.2597 23.3786C81.9682 24.1442 81.6086 25.7876 82.3664 27.489C81.5196 27.4426 81.6859 28.0381 81.5467 28.3552C80.5452 30.6598 79.6172 32.9837 78.6466 35.2961C77.8346 37.2295 76.1293 38.2928 73.9678 38.2426C71.7521 38.1884 70.1513 37.1212 69.432 35.153C68.5233 32.6744 67.6494 30.1842 66.7175 27.5702C65.9364 28.042 65.2752 28.4403 64.6179 28.8385C63.4965 29.0551 63.5197 28.3823 63.4308 27.868C63.2645 26.8703 63.5274 25.8766 63.57 24.8828C64.2621 23.6957 65.5536 22.9455 66.9805 22.4351C68.5504 21.8706 70.2015 22.7174 70.7506 24.2525C71.7444 27.0327 72.7343 29.8168 73.7358 32.5971C73.9059 33.0688 74.1456 33.5483 73.9252 34.0626C75.2283 30.6598 76.6784 27.2957 78.0782 23.9238C78.6659 22.5125 79.71 21.9324 81.2257 22.0562C82.2698 22.1412 83.0547 22.497 83.2519 23.3786H83.2597Z" fill="#30A066"/>
<path id="Vector_3" d="M27.5432 31.9706C32.3806 29.0589 37.1019 26.0428 41.2935 22.5666C43.4319 20.7956 45.4813 18.9589 47.5732 17.1492C48.1029 17.5707 47.9637 18.112 47.9908 18.6186C48.0488 19.6858 47.8825 20.7608 48.1455 21.8203C48.4123 22.2611 48.1803 22.6787 47.724 22.845C46.8849 23.1505 47.8361 23.2665 47.7704 23.4714C47.55 24.674 47.9444 25.892 47.5887 27.0869C44.851 27.984 42.1287 28.912 39.3679 29.7704C37.8289 30.2499 36.4755 30.8956 35.2188 31.7386C32.9993 33.2273 30.7101 34.6542 28.2083 35.8567C27.2107 36.081 27.056 35.4817 26.9477 34.9906C26.7118 33.9427 26.793 32.9064 27.5471 31.9667L27.5432 31.9706Z" fill="#3EB376"/>
<path id="Vector_4" d="M47.5847 27.0907C47.1478 25.8263 47.1014 24.5619 47.5731 23.2936C47.8128 22.8179 48.4045 22.6787 48.9226 22.5202C51.4708 21.7275 53.9881 20.8807 56.5286 20.0803C57.7234 19.7052 58.81 19.7632 59.7496 20.4399C60.6545 21.0934 60.7202 21.8976 60.3838 22.8141C59.7612 24.5039 58.9608 26.1472 58.2803 28.0265C59.4906 27.1874 60.5501 26.4721 61.625 25.7722C62.2669 25.3546 62.8121 24.7668 63.7904 24.7823C64.2274 25.7683 63.5932 26.7543 63.7904 27.7442C63.8832 28.216 63.6938 28.7651 64.6179 28.8424C63.2491 29.7859 61.9266 30.7681 60.5075 31.6613C58.8796 32.6821 56.7761 32.7517 55.1095 31.9397C53.3926 31.1045 52.5767 29.55 53.0871 27.9414C53.381 27.0134 53.7909 26.1086 54.193 25.0839C51.873 25.7915 49.7308 26.4411 47.5886 27.0907H47.5847Z" fill="#37AA6E"/>
<path id="Vector_5" d="M99.7554 26.8007C99.5157 25.7683 98.5954 24.7127 99.4074 23.7034C100.011 22.9571 99.9488 22.2109 99.6201 21.5999C99.1097 20.6487 99.1947 19.7129 99.1793 18.7578C99.1715 18.2783 99.1909 17.764 99.9913 17.6094C104.21 21.395 108.634 25.022 113.587 28.2431C114.94 29.1247 116.286 30.014 117.635 30.9034C117.226 31.8392 117.164 32.7981 117.311 33.7726C117.369 34.1438 117.434 34.5343 116.851 34.7238C116 34.2327 115.068 33.8112 114.318 33.2428C110.718 30.5206 106.256 28.97 101.704 27.5238C101.039 27.3112 100.405 27.0443 99.7554 26.8046V26.8007Z" fill="#218C54"/>
<path id="Vector_6" d="M48.0527 22.0949C47.3721 21.9518 47.5809 21.511 47.5771 21.1707C47.5577 19.8289 47.5693 18.491 47.5732 17.1492C51.9427 12.8068 55.8713 8.24014 59.2354 3.37958C60.1287 2.08807 61.5633 1.19871 63.516 0.951233C64.0419 1.38045 63.8911 1.9218 63.9027 2.42835C63.9181 3.02383 63.9027 3.61545 64.3705 4.12973C64.5523 4.93016 63.5585 5.24337 63.1796 5.81952C61.1959 8.82402 58.872 11.6738 56.3933 14.4463C54.1081 17.0023 51.7377 19.5041 48.8879 21.7082C48.6482 21.8938 48.4316 22.1026 48.0488 22.0949H48.0527Z" fill="#37A96E"/>
<path id="Vector_7" d="M116.855 34.7199C117.23 33.8886 116.735 33.0611 116.831 32.222C116.893 31.669 116.982 31.2011 117.636 30.8995C121.746 33.1925 125.942 35.3811 130.361 37.3029C131.873 37.9603 133.428 38.5597 134.94 39.217C136.305 39.8086 136.757 40.8217 136.127 41.7536C135.5 42.6778 134.174 42.9523 132.747 42.38C127.191 40.1566 121.854 37.6471 116.851 34.7238L116.855 34.7199Z" fill="#18804A"/>
<path id="Vector_8" d="M64.9699 65.7625C71.9262 65.7625 78.8865 65.7625 85.8428 65.7625C86.33 66.2691 86.2875 66.9226 86.2759 67.5374C86.2527 68.6008 86.8173 69.1073 87.7762 69.3471C88.6269 69.5636 89.4892 69.6177 90.3592 69.6177C93.2091 69.6177 96.055 69.5907 98.9049 69.6371C99.5197 69.6487 100.308 69.4128 100.618 70.2944C92.2114 70.2944 83.8012 70.2944 75.3948 70.2944C73.5194 70.0701 71.6362 70.248 69.757 70.1977C68.9372 70.1745 68.1136 70.2441 67.2938 70.1745C64.6141 69.9503 63.7518 68.2991 64.9699 65.7587V65.7625Z" fill="#2E9E64"/>
<path id="Vector_9" d="M64.9698 65.7625C64.9698 66.1453 64.9698 66.5281 64.9698 66.911C64.9698 69.5326 65.4299 70.0121 68.1212 70.0508C70.0894 70.0817 72.0537 70.0508 74.0219 70.0663C74.4859 70.0663 74.9886 69.9193 75.3946 70.2983C68.1483 70.2983 60.898 70.2983 53.6517 70.2983C52.654 69.7917 51.5868 70.1745 50.5544 70.0624C50.2218 70.0276 49.8854 70.0585 49.549 70.0585C45.3767 70.0585 45.2414 69.9232 45.253 65.7625C51.8265 65.7625 58.3962 65.7625 64.9698 65.7625Z" fill="#38AB6F"/>
<path id="Vector_10" d="M28.4402 65.7625C28.4402 65.8592 28.4402 65.952 28.4402 66.0487C28.2701 69.9812 28.6916 69.4747 32.4501 70.0469C33.6101 70.2248 34.8243 69.7917 35.9689 70.2944C27.9646 70.3099 19.9565 70.3331 11.9522 70.3254C10.39 70.3254 9.346 69.32 9.34986 68.0014C9.35373 66.648 10.3746 65.7239 11.9561 65.7239C17.4547 65.7239 22.9494 65.7471 28.448 65.7625H28.4402Z" fill="#46BE80"/>
<path id="Vector_11" d="M27.5431 31.9706C27.5702 32.8677 27.1255 33.7339 27.2647 34.6426C27.3459 35.1723 27.3189 35.7176 28.2044 35.8606C23.6299 38.5249 18.6263 40.6129 13.4873 42.5193C12.5477 42.8673 11.7821 42.5657 11.1943 41.9895C10.564 41.3669 10.5447 40.6825 11.0358 39.9942C11.2794 39.6578 11.6583 39.4142 12.0914 39.2479C17.4972 37.1483 22.5782 34.6387 27.5393 31.9706H27.5431Z" fill="#48C182"/>
<path id="Vector_12" d="M64.4787 4.34627C63.775 4.28054 63.4966 3.96346 63.5082 3.42597C63.5275 2.60235 63.5159 1.77872 63.5159 0.955094C64.587 0.599349 65.6852 0.641884 66.7524 0.900959C71.2727 1.99913 75.7968 1.98366 80.3326 0.982162C80.9667 1.32631 81.0325 1.85606 80.9977 2.37807C80.9474 3.10503 81.1717 3.77012 81.5545 4.41974C80.437 5.28203 78.9328 5.26657 77.5369 5.45218C73.3066 6.01286 69.1769 5.53338 65.1013 4.62468C64.8654 4.57055 64.6489 4.49321 64.4787 4.35401V4.34627Z" fill="#30A166"/>
<path id="Vector_13" d="M100.618 70.2983C100.208 69.9193 99.7014 70.0663 99.2374 70.0663C96.3914 70.0547 93.5493 70.0585 90.7034 70.0585C90.51 70.0585 90.3167 70.0585 90.1234 70.0585C86.1406 70.0585 85.8312 69.7453 85.8428 65.7625C91.6391 65.7625 97.4393 65.7625 103.236 65.7625C103.236 66.3387 103.236 66.9187 103.236 67.4948C103.236 69.5172 103.723 70.0353 105.78 70.0508C109.639 70.0779 113.498 70.0508 117.353 70.0663C117.864 70.0663 118.421 69.8923 118.881 70.2983C112.794 70.2983 106.704 70.2983 100.618 70.2983Z" fill="#26935A"/>
<path id="Vector_14" d="M137.546 70.1088C133.165 70.0933 128.784 70.0701 124.402 70.0585C121.324 70.0508 120.918 69.6525 120.918 66.6248C120.918 66.3348 120.918 66.0487 120.918 65.7587C126.173 65.7432 131.428 65.7277 136.68 65.7084C137.971 65.7045 138.837 66.3387 139.073 67.5644C139.305 68.7748 138.837 69.7299 137.542 70.1088H137.546Z" fill="#177E48"/>
<path id="Vector_15" d="M81.5738 4.34239C80.7579 4.27279 80.6032 3.85517 80.6148 3.30222C80.6342 2.52113 80.7192 1.7323 80.3364 0.978279C83.3719 0.436928 86.241 1.29149 87.7993 3.29449C89.2107 5.10801 90.5138 6.97181 91.8672 8.8124C91.0281 9.01348 91.0706 9.56256 91.0629 10.073C91.0436 11.465 91.0474 12.8571 91.0397 14.2491C90.305 14.28 90.0923 13.7967 89.7869 13.4448C87.9849 11.3722 86.2488 9.26095 84.7832 7.03368C84.0176 5.86977 83.1863 4.84507 81.5699 4.33852L81.5738 4.34239Z" fill="#28965D"/>
<path id="Vector_16" d="M46.3436 65.8824C46.3436 65.9791 46.3436 66.0719 46.3436 66.1686C46.1232 70.1011 46.6723 69.5945 51.5251 70.1668C53.0254 70.3447 54.5915 69.9116 56.0724 70.4143C45.721 70.4298 35.3735 70.453 25.0221 70.4452C23.0036 70.4452 21.6503 69.4399 21.658 68.1213C21.6619 66.7679 22.9843 65.8438 25.026 65.8438C32.1331 65.8438 39.2403 65.8669 46.3475 65.8824H46.3436Z" fill="#3FB578"/>
<path id="Vector_17" d="M118.498 70.4181C118.069 70.0392 117.539 70.1861 117.048 70.1861C114.063 70.1745 111.081 70.1784 108.096 70.1784C107.895 70.1784 107.69 70.1784 107.489 70.1784C103.309 70.1784 102.984 69.8652 102.996 65.8824C109.078 65.8824 115.161 65.8824 121.243 65.8824C121.243 66.4585 121.243 67.0386 121.243 67.6147C121.243 69.637 121.754 70.1552 123.911 70.1707C127.96 70.1977 132.005 70.1707 136.053 70.1861C136.591 70.1861 137.174 70.0121 137.654 70.4181C131.266 70.4181 124.882 70.4181 118.494 70.4181H118.498Z" fill="#1F8A52"/>
<g id="Group_2">
<path id="Vector_18" d="M53.6827 60.0938C53.6827 60.5192 53.3347 60.8672 52.9093 60.8672H39.1977C38.7723 60.8672 38.4243 60.5192 38.4243 60.0938V40.2765C38.4243 39.8512 38.7723 39.5031 39.1977 39.5031H40.8565C41.2819 39.5031 41.6299 39.8512 41.6299 40.2765V57.5688C41.6299 57.9941 41.9779 58.3422 42.4032 58.3422H52.9055C53.3308 58.3422 53.6788 58.6902 53.6788 59.1155V60.0938H53.6827Z" fill="white"/>
<path id="Vector_19" d="M70.7042 60.0938C70.7042 60.5192 70.3562 60.8672 69.9309 60.8672H68.4499C68.0246 60.8672 67.6765 60.5192 67.6765 60.0938V59.9314C67.6765 59.5061 67.3904 59.3321 67.0424 59.5486L66.5822 59.8386C66.1221 60.1286 65.6774 60.3606 65.2443 60.5346C64.7378 60.755 64.1539 60.9368 63.4965 61.0876C62.8392 61.2345 62.0658 61.3119 61.1803 61.3119C59.5485 61.3119 58.1681 60.8324 57.0351 59.8773C55.9022 58.9222 55.3337 57.7003 55.3337 56.2193C55.3337 55.0051 55.6276 54.0229 56.2154 53.2728C56.8031 52.5226 57.6422 51.931 58.7326 51.5018C59.8347 51.0726 61.1571 50.7787 62.7 50.6279C64.2428 50.4732 66.8993 50.3263 66.8993 50.3263C67.3247 50.3031 67.6727 50.191 67.6727 50.075C67.6727 49.9589 67.634 49.522 67.5876 49.0967C67.5876 49.0967 67.5489 48.7448 67.3053 48.3465C67.0617 47.9443 66.7137 47.6311 66.2613 47.3991C65.8282 47.1787 65.3101 47.0318 64.7068 46.9545C64.1036 46.8771 63.4695 46.8384 62.8121 46.8384C62.0117 46.8384 61.1223 46.9313 60.1402 47.1169C59.158 47.3025 57.8356 47.7046 57.8356 47.7046C57.4295 47.8283 57.0583 47.9289 57.0158 47.9289C56.9733 47.9289 56.9346 47.5809 56.9346 47.1555V45.9607C56.9346 45.5353 57.2749 45.1177 57.6925 45.0288C57.6925 45.0288 58.3885 44.8857 59.5099 44.7117C60.6312 44.5377 61.741 44.4526 62.8315 44.4526C64.1036 44.4526 65.2134 44.5454 66.1608 44.731C67.1043 44.9167 67.924 45.2337 68.6162 45.6861C69.2967 46.127 69.8149 46.6954 70.1706 47.3953C70.5264 48.0952 70.6346 49.2204 70.6346 49.2204C70.6733 49.6457 70.7081 50.3379 70.7081 50.7632V60.0899L70.7042 60.0938ZM67.0153 57.3252C67.3788 57.1048 67.6765 56.575 67.6765 56.1497V53.2341C67.6765 52.8088 67.3285 52.4801 66.9032 52.5072C66.9032 52.5072 65.6542 52.5806 64.3975 52.6773C63.1408 52.774 62.1432 52.9132 61.4085 53.0949C60.5346 53.3153 59.827 53.6556 59.2856 54.1196C58.7443 54.5836 58.4774 55.2216 58.4774 56.0337C58.4774 56.9501 58.7907 57.6423 59.4171 58.1063C60.0435 58.5703 60.9986 58.8023 62.2824 58.8023C63.3496 58.8023 64.3279 58.6167 65.2134 58.2494C66.0989 57.882 67.0153 57.3252 67.0153 57.3252Z" fill="white"/>
<path id="Vector_20" d="M91.1829 44.8432C91.6082 44.8432 91.8132 45.1603 91.6353 45.5469L84.9574 60.1634C84.7795 60.5501 84.2884 60.8672 83.863 60.8672H82.3473C81.9219 60.8672 81.4308 60.5501 81.253 60.1634L74.6214 45.5469C74.4474 45.1603 74.6485 44.8432 75.0738 44.8432H76.8294C77.2547 44.8432 77.7419 45.1602 77.9121 45.5508L82.8925 56.8882C83.0626 57.2788 83.341 57.2788 83.5112 56.8882L88.4491 45.5508C88.6192 45.1602 89.1064 44.8432 89.5318 44.8432H91.1751H91.1829Z" fill="white"/>
<path id="Vector_21" d="M114.902 60.1518C115.064 60.5462 114.848 60.8672 114.422 60.8672H112.551C112.125 60.8672 111.65 60.5424 111.491 60.148L109.697 55.6315C109.538 55.2371 109.063 54.9123 108.637 54.9123H99.7554C99.3301 54.9123 98.8545 55.2371 98.6959 55.6315L96.9017 60.148C96.7432 60.5424 96.2676 60.8672 95.8422 60.8672H94.1331C93.7078 60.8672 93.4912 60.5462 93.6536 60.1518L101.843 40.2185C102.006 39.8241 102.485 39.5031 102.911 39.5031H105.641C106.066 39.5031 106.546 39.8241 106.708 40.2185L114.898 60.1518H114.902ZM107.651 52.4762C108.077 52.4762 108.293 52.1553 108.135 51.7609L104.485 42.7087C104.326 42.3143 104.063 42.3143 103.904 42.7087L100.243 51.7609C100.084 52.1553 100.301 52.4762 100.726 52.4762H107.651Z" fill="white"/>
</g>
</g>
</g>
</g>
<defs>
<clipPath id="clip0_306_263">
<rect width="148.485" height="70" fill="white"/>
</clipPath>
</defs>
</svg>
